<?xml version="1.0" encoding="iso-8859-1"?>
<!-- Generator: Adobe Illustrator 18.0.0, SVG Export Plug-In . SVG Version: 6.00 Build 0)  -->
<!DOCTYPE svg PUBLIC "-//W3C//DTD SVG 1.1//EN" "http://www.w3.org/Graphics/SVG/1.1/DTD/svg11.dtd">
<svg xmlns="http://www.w3.org/2000/svg" xmlns:xlink="http://www.w3.org/1999/xlink" version="1.1" id="Capa_1" x="0px" y="0px" viewBox="0 0 461.701 461.701" style="enable-background:new 0 0 461.701 461.701;" xml:space="preserve" width="15px" height="15px">
<path d="M399.453,0H62.248C51.297,0,42.419,8.877,42.419,19.829v422.043c0,10.951,8.878,19.829,19.829,19.829h238.654  c0.003,0,0.006,0,0.01,0c4.971,0,10.215-1.998,14.026-5.808l98.537-98.537c3.807-3.807,5.807-8.989,5.807-14.021V19.829  C419.282,8.877,410.404,0,399.453,0z M306.487,250.502c7.743,7.744,7.744,20.299,0,28.043c-3.872,3.872-8.947,5.808-14.022,5.808  c-5.074,0-10.15-1.936-14.021-5.808l-47.594-47.594l-47.594,47.594c-3.872,3.872-8.947,5.808-14.021,5.808  c-5.075,0-10.149-1.936-14.021-5.808c-7.744-7.744-7.744-20.299,0-28.043l47.594-47.593l-47.594-47.594  c-7.744-7.744-7.744-20.298,0-28.042c7.744-7.744,20.299-7.744,28.042,0l47.594,47.594l47.594-47.594  c7.743-7.743,20.298-7.743,28.042,0c7.744,7.744,7.743,20.299,0,28.042l-47.594,47.594L306.487,250.502z M303.919,410.826v-0.001  v-64.488h64.488h0L303.919,410.826z" fill="#FFFFFF"/>
<g>
</g>
<g>
</g>
<g>
</g>
<g>
</g>
<g>
</g>
<g>
</g>
<g>
</g>
<g>
</g>
<g>
</g>
<g>
</g>
<g>
</g>
<g>
</g>
<g>
</g>
<g>
</g>
<g>
</g>
</svg>
