<?xml version="1.0" encoding="iso-8859-1"?>
<!-- Generator: Adobe Illustrator 16.0.0, SVG Export Plug-In . SVG Version: 6.00 Build 0)  -->
<!DOCTYPE svg PUBLIC "-//W3C//DTD SVG 1.1//EN" "http://www.w3.org/Graphics/SVG/1.1/DTD/svg11.dtd">
<svg version="1.1" id="Capa_1" xmlns="http://www.w3.org/2000/svg" xmlns:xlink="http://www.w3.org/1999/xlink" x="0px" y="0px"
	 width="15px" height="15px" viewBox="0 0 73.17 73.17" style="enable-background:new 0 0 73.17 73.17;" xml:space="preserve"
	>
<g>
	<g id="Upload">
		<g>
			<path d="M68.912,62.606H4.258C1.907,62.606,0,64.532,0,66.917c0,2.377,1.907,4.303,4.258,4.303h64.654
				c2.352,0,4.258-1.926,4.258-4.303C73.17,64.532,71.264,62.606,68.912,62.606z M18.33,31.243l5.172-0.158v17.804
				c0,2.384,1.906,4.31,4.261,4.31h16.445c1.132,0,2.215-0.451,3.013-1.264c0.801-0.805,1.248-1.902,1.248-3.046V31.084l5.119,0.158
				c1.658,0.022,3.23-0.903,3.963-2.43c0.73-1.526,0.504-3.347-0.574-4.648L39.805,3.496c-0.793-0.955-1.959-1.52-3.193-1.542
				c-1.195-0.053-2.414,0.504-3.238,1.437l-18.337,20.67c-1.136,1.278-1.41,3.129-0.692,4.693
				C15.059,30.318,16.653,31.295,18.33,31.243z"/>
		</g>
	</g>
</g>
<g>
</g>
<g>
</g>
<g>
</g>
<g>
</g>
<g>
</g>
<g>
</g>
<g>
</g>
<g>
</g>
<g>
</g>
<g>
</g>
<g>
</g>
<g>
</g>
<g>
</g>
<g>
</g>
<g>
</g>
</svg>
